<?xml version="1.0" encoding="UTF-8" standalone="no"?>
<!DOCTYPE svg PUBLIC "-//W3C//DTD SVG 1.1//EN" "http://www.w3.org/Graphics/SVG/1.1/DTD/svg11.dtd">
<svg width="100%" height="100%" viewBox="0 0 146 35" version="1.1" xmlns="http://www.w3.org/2000/svg" xmlns:xlink="http://www.w3.org/1999/xlink" xml:space="preserve" style="fill-rule:evenodd;clip-rule:evenodd;stroke-linejoin:round;stroke-miterlimit:1.41421;">
    <g transform="matrix(0.280277,0,0,0.280277,-47.5159,-70.3621)">
        <path d="M170.212,253.036C172.665,252.759 174.964,252.521 177.11,252.327C179.255,252.13 181.638,252.032 184.258,252.032C187.323,252.032 190.349,252.312 193.33,252.869C196.312,253.427 199.001,254.416 201.398,255.837C203.795,257.259 205.733,259.182 207.21,261.607C208.686,264.032 209.424,267.112 209.424,270.844C209.424,273.076 209.146,275.04 208.589,276.74C208.031,278.441 207.321,279.932 206.457,281.213C205.592,282.496 204.66,283.595 203.656,284.515C202.652,285.434 201.705,286.175 200.813,286.731L199.393,287.651L214.023,313.068C212.907,313.182 211.738,313.291 210.513,313.402C209.287,313.515 208.031,313.57 206.75,313.57C204.631,313.57 202.542,313.402 200.478,313.068L184.759,285.143L186.768,284.139C187.546,283.75 188.494,283.248 189.61,282.634C190.724,282.022 191.795,281.256 192.829,280.336C193.859,279.416 194.737,278.3 195.462,276.991C196.186,275.682 196.549,274.134 196.549,272.349C196.549,268.839 195.545,266.261 193.54,264.616C191.532,262.973 188.941,262.149 185.764,262.149C184.536,262.149 183.423,262.232 182.419,262.401L182.419,313.152C181.415,313.264 180.412,313.361 179.41,313.445C178.405,313.529 177.429,313.57 176.482,313.57C175.534,313.57 174.532,313.543 173.473,313.488C172.413,313.432 171.326,313.318 170.212,313.152L170.212,253.036Z" style="fill:rgb(65,64,66);fill-rule:nonzero;"/>
    </g>
    <g transform="matrix(0.280277,0,0,0.280277,-47.5159,-70.3621)">
        <path d="M245.461,286.899C245.351,284.224 244.612,282.064 243.248,280.419C241.88,278.776 239.97,277.953 237.519,277.953C234.731,277.953 232.614,278.733 231.165,280.294C229.715,281.854 228.85,284.055 228.573,286.899L245.461,286.899ZM228.488,295.175C228.712,298.52 229.882,300.945 232.001,302.45C234.117,303.956 236.904,304.707 240.362,304.707C242.257,304.707 244.193,304.527 246.172,304.164C248.15,303.802 250.032,303.287 251.816,302.617C252.43,303.733 252.959,305.072 253.405,306.63C253.851,308.193 254.101,309.863 254.157,311.649C249.81,313.318 244.905,314.156 239.443,314.156C235.43,314.156 231.986,313.598 229.117,312.482C226.244,311.369 223.903,309.822 222.093,307.844C220.281,305.866 218.943,303.51 218.08,300.778C217.215,298.048 216.783,295.065 216.783,291.832C216.783,288.654 217.229,285.674 218.121,282.885C219.012,280.099 220.336,277.675 222.093,275.612C223.85,273.55 226.024,271.919 228.614,270.72C231.207,269.523 234.23,268.922 237.686,268.922C240.697,268.922 243.372,269.452 245.712,270.51C248.055,271.571 250.046,273.02 251.691,274.857C253.334,276.697 254.576,278.886 255.413,281.421C256.247,283.96 256.667,286.676 256.667,289.574C256.667,290.634 256.624,291.68 256.541,292.71C256.457,293.742 256.359,294.564 256.247,295.175L228.488,295.175Z" style="fill:rgb(65,64,66);fill-rule:nonzero;"/>
    </g>
    <g transform="matrix(0.280277,0,0,0.280277,-47.5159,-70.3621)">
        <path d="M282.167,291.832C284.508,291.832 286.194,291.162 287.224,289.826C288.256,288.489 288.772,286.649 288.772,284.307C288.772,281.966 288.256,280.113 287.224,278.747C286.194,277.381 284.508,276.697 282.167,276.697C279.77,276.697 278.042,277.381 276.983,278.747C275.923,280.113 275.395,281.966 275.395,284.307C275.395,286.649 275.923,288.489 276.983,289.826C278.042,291.162 279.77,291.832 282.167,291.832M278.738,314.659C277.512,314.6 276.494,314.743 275.688,315.077C274.878,315.411 274.237,315.842 273.764,316.374C273.29,316.901 272.956,317.485 272.76,318.127C272.565,318.768 272.468,319.395 272.468,320.008C272.468,322.125 273.262,323.563 274.851,324.315C276.438,325.067 278.572,325.444 281.248,325.444C284.759,325.444 287.586,324.885 289.734,323.772C291.878,322.657 292.953,321.151 292.953,319.256C292.953,318.698 292.882,318.17 292.743,317.668C292.605,317.166 292.338,316.707 291.949,316.29C291.56,315.87 291.015,315.52 290.318,315.243C289.622,314.963 288.688,314.825 287.519,314.825L278.738,314.659ZM289.441,305.963C294.512,306.075 298.248,307.203 300.645,309.348C303.041,311.495 304.24,314.545 304.24,318.504C304.24,320.844 303.627,322.979 302.4,324.901C301.174,326.823 299.501,328.454 297.385,329.791C295.266,331.131 292.757,332.161 289.859,332.883C286.96,333.608 283.84,333.973 280.495,333.973C277.15,333.973 274.308,333.706 271.965,333.178C269.626,332.649 267.716,331.909 266.238,330.961C264.761,330.014 263.703,328.844 263.062,327.452C262.42,326.057 262.1,324.524 262.1,322.852C262.1,320.342 262.697,318.28 263.897,316.665C265.095,315.047 266.698,313.625 268.707,312.399C267.422,311.622 266.407,310.659 265.653,309.516C264.902,308.374 264.524,306.912 264.524,305.127C264.524,303.009 264.971,301.28 265.863,299.943C266.753,298.604 268.064,297.323 269.792,296.095C267.84,294.703 266.336,293.002 265.277,290.997C264.218,288.989 263.688,286.76 263.688,284.307C263.688,282.133 264.108,280.113 264.943,278.246C265.779,276.378 266.991,274.763 268.581,273.395C270.169,272.031 272.105,270.958 274.391,270.176C276.676,269.397 279.241,269.005 282.083,269.005C284.87,269.005 287.435,269.439 289.775,270.302C292.118,271.166 294.067,272.267 295.628,273.604C296.686,272.212 297.998,271.166 299.558,270.469C301.119,269.773 303.237,269.425 305.912,269.425C306.024,270.149 306.123,270.86 306.205,271.556C306.288,272.255 306.331,272.992 306.331,273.772C306.331,274.665 306.302,275.557 306.247,276.448C306.19,277.34 306.08,278.26 305.912,279.207L299.14,279.207C299.417,279.765 299.669,280.433 299.893,281.213C300.115,281.995 300.227,283.025 300.227,284.307C300.227,286.48 299.822,288.501 299.014,290.368C298.206,292.237 297.02,293.839 295.461,295.175C293.899,296.515 291.992,297.573 289.734,298.355C287.476,299.135 284.925,299.524 282.083,299.524C279.686,299.524 277.539,299.274 275.645,298.772C274.697,299.385 274.112,300.041 273.889,300.737C273.667,301.435 273.555,302.089 273.555,302.702C273.555,303.594 273.848,304.318 274.434,304.876C275.019,305.434 276.203,305.74 277.987,305.796L289.441,305.963Z" style="fill:rgb(65,64,66);fill-rule:nonzero;"/>
    </g>
    <g transform="matrix(0.280277,0,0,0.280277,-47.5159,-70.3621)">
        <path d="M312.267,262.652C311.933,260.757 311.764,258.889 311.764,257.049C311.764,255.266 311.933,253.399 312.267,251.446C313.214,251.28 314.232,251.155 315.317,251.07C316.406,250.986 317.394,250.946 318.287,250.946C319.234,250.946 320.264,250.986 321.38,251.07C322.495,251.155 323.525,251.28 324.474,251.446C324.641,252.397 324.751,253.329 324.809,254.248C324.863,255.168 324.892,256.102 324.892,257.049C324.892,257.941 324.863,258.861 324.809,259.808C324.751,260.757 324.641,261.705 324.474,262.652C323.525,262.818 322.51,262.931 321.421,262.986C320.334,263.041 319.318,263.069 318.371,263.069C317.479,263.069 316.475,263.041 315.36,262.986C314.244,262.931 313.214,262.818 312.267,262.652M314.022,278.956L308.421,278.956C308.253,278.231 308.128,277.465 308.045,276.657C307.961,275.847 307.919,275.081 307.919,274.358C307.919,272.852 308.085,271.374 308.421,269.924L325.643,269.924L325.643,313.152C323.638,313.488 321.685,313.654 319.79,313.654C317.953,313.654 316.029,313.488 314.022,313.152L314.022,278.956Z" style="fill:rgb(65,64,66);fill-rule:nonzero;"/>
    </g>
    <g transform="matrix(0.280277,0,0,0.280277,-47.5159,-70.3621)">
        <path d="M344.875,294.341C341.751,293.448 339.313,292.124 337.558,290.367C335.803,288.612 334.923,285.979 334.923,282.466C334.923,278.231 336.442,274.915 339.482,272.518C342.519,270.12 346.656,268.922 351.897,268.922C354.071,268.922 356.216,269.118 358.335,269.507C360.453,269.898 362.599,270.482 364.772,271.264C364.662,272.714 364.383,274.218 363.937,275.777C363.491,277.339 362.96,278.705 362.349,279.876C361.011,279.318 359.533,278.831 357.917,278.412C356.3,277.993 354.6,277.785 352.817,277.785C350.921,277.785 349.443,278.076 348.385,278.662C347.326,279.247 346.797,280.183 346.797,281.464C346.797,282.691 347.174,283.553 347.925,284.055C348.678,284.558 349.75,285.031 351.145,285.477L355.911,286.899C357.47,287.344 358.88,287.889 360.134,288.528C361.388,289.17 362.461,289.964 363.353,290.912C364.242,291.861 364.941,293.031 365.442,294.424C365.943,295.817 366.195,297.517 366.195,299.524C366.195,301.586 365.763,303.509 364.898,305.292C364.034,307.076 362.78,308.625 361.136,309.933C359.491,311.244 357.5,312.275 355.158,313.027C352.817,313.779 350.17,314.156 347.214,314.156C345.877,314.156 344.651,314.113 343.535,314.029C342.421,313.947 341.348,313.806 340.316,313.613C339.286,313.416 338.268,313.181 337.266,312.902C336.263,312.623 335.174,312.261 334.003,311.814C334.115,310.31 334.38,308.791 334.799,307.258C335.217,305.724 335.76,304.235 336.429,302.784C338.268,303.509 340.009,304.053 341.656,304.415C343.299,304.777 345.013,304.958 346.797,304.958C347.576,304.958 348.428,304.889 349.348,304.749C350.268,304.612 351.117,304.36 351.897,303.997C352.678,303.635 353.331,303.161 353.861,302.576C354.392,301.99 354.657,301.224 354.657,300.277C354.657,298.938 354.25,297.977 353.444,297.391C352.635,296.806 351.506,296.291 350.058,295.844L344.875,294.341Z" style="fill:rgb(65,64,66);fill-rule:nonzero;"/>
    </g>
    <g transform="matrix(0.280277,0,0,0.280277,-47.5159,-70.3621)">
        <path d="M375.307,278.957L369.874,278.957L369.454,277.283L385.09,257.3L387.013,257.3L387.013,269.925L397.13,269.925C397.299,270.762 397.409,271.515 397.464,272.185C397.519,272.853 397.548,273.55 397.548,274.274C397.548,275.054 397.519,275.809 397.464,276.532C397.409,277.255 397.299,278.065 397.13,278.957L387.013,278.957L387.013,295.93C387.013,297.657 387.152,299.051 387.432,300.11C387.71,301.169 388.113,302.006 388.643,302.618C389.174,303.232 389.827,303.649 390.609,303.872C391.389,304.096 392.309,304.207 393.368,304.207C394.205,304.207 395.027,304.137 395.835,303.998C396.642,303.858 397.354,303.734 397.967,303.622C398.356,304.68 398.635,305.782 398.804,306.924C398.97,308.067 399.054,309.084 399.054,309.975C399.054,310.59 399.04,311.104 399.013,311.522C398.983,311.94 398.942,312.346 398.887,312.735C396.322,313.346 393.675,313.655 390.943,313.655C385.87,313.655 381.997,312.469 379.32,310.1C376.647,307.733 375.307,303.872 375.307,298.52L375.307,278.957Z" style="fill:rgb(65,64,66);fill-rule:nonzero;"/>
    </g>
    <g transform="matrix(0.280277,0,0,0.280277,-47.5159,-70.3621)">
        <path d="M431.745,286.899C431.633,284.224 430.894,282.064 429.53,280.419C428.162,278.776 426.254,277.953 423.803,277.953C421.014,277.953 418.897,278.733 417.447,280.294C415.997,281.854 415.134,284.055 414.856,286.899L431.745,286.899ZM414.772,295.175C414.995,298.52 416.165,300.945 418.284,302.45C420.401,303.956 423.188,304.707 426.644,304.707C428.539,304.707 430.477,304.527 432.456,304.164C434.433,303.802 436.314,303.287 438.099,302.617C438.712,303.733 439.242,305.072 439.688,306.63C440.135,308.193 440.385,309.863 440.441,311.649C436.094,313.318 431.188,314.156 425.725,314.156C421.712,314.156 418.268,313.598 415.399,312.482C412.528,311.369 410.187,309.822 408.375,307.844C406.563,305.866 405.226,303.51 404.362,300.778C403.497,298.048 403.066,295.065 403.066,291.832C403.066,288.654 403.513,285.674 404.405,282.885C405.295,280.099 406.62,277.675 408.375,275.612C410.132,273.55 412.306,271.919 414.896,270.72C417.49,269.523 420.513,268.922 423.968,268.922C426.979,268.922 429.655,269.452 431.996,270.51C434.337,271.571 436.33,273.02 437.973,274.857C439.616,276.697 440.858,278.886 441.695,281.421C442.53,283.96 442.949,286.676 442.949,289.574C442.949,290.634 442.906,291.68 442.823,292.71C442.74,293.742 442.642,294.564 442.53,295.175L414.772,295.175Z" style="fill:rgb(65,64,66);fill-rule:nonzero;"/>
    </g>
    <g transform="matrix(0.280277,0,0,0.280277,-47.5159,-70.3621)">
        <path d="M451.477,269.924C452.313,269.758 453.108,269.633 453.861,269.549C454.612,269.465 455.434,269.424 456.328,269.424C457.163,269.424 457.985,269.48 458.793,269.59C459.6,269.703 460.394,269.841 461.176,270.008C461.343,270.289 461.497,270.692 461.636,271.221C461.774,271.752 461.9,272.308 462.011,272.894C462.123,273.479 462.221,274.063 462.304,274.649C462.388,275.234 462.457,275.723 462.514,276.112C463.739,274.385 465.245,272.838 467.029,271.472C468.812,270.107 471.042,269.424 473.717,269.424C474.275,269.424 474.915,269.452 475.641,269.507C476.365,269.563 476.895,269.647 477.229,269.758C477.341,270.317 477.423,270.957 477.48,271.681C477.536,272.406 477.563,273.159 477.563,273.939C477.563,274.888 477.522,275.918 477.439,277.032C477.355,278.147 477.202,279.206 476.979,280.21C476.365,280.098 475.682,280.042 474.929,280.042L473.55,280.042C472.603,280.042 471.543,280.14 470.373,280.336C469.203,280.53 468.086,281.046 467.029,281.881C465.969,282.718 465.091,283.972 464.395,285.644C463.698,287.317 463.35,289.657 463.35,292.667L463.35,313.236C462.347,313.402 461.343,313.515 460.34,313.57C459.336,313.625 458.36,313.654 457.414,313.654C456.465,313.654 455.504,313.625 454.529,313.57C453.553,313.515 452.535,313.402 451.477,313.236L451.477,269.924Z" style="fill:rgb(65,64,66);fill-rule:nonzero;"/>
    </g>
    <g transform="matrix(0.280277,0,0,0.280277,-47.5159,-70.3621)">
        <path d="M509.419,286.899C509.305,284.224 508.567,282.064 507.202,280.419C505.836,278.776 503.928,277.953 501.475,277.953C498.687,277.953 496.569,278.733 495.121,280.294C493.671,281.854 492.806,284.055 492.528,286.899L509.419,286.899ZM492.444,295.175C492.667,298.52 493.838,300.945 495.956,302.45C498.075,303.956 500.861,304.707 504.318,304.707C506.212,304.707 508.149,304.527 510.128,304.164C512.107,303.802 513.988,303.287 515.773,302.617C516.386,303.733 516.915,305.072 517.36,306.63C517.807,308.193 518.059,309.863 518.113,311.649C513.766,313.318 508.86,314.156 503.398,314.156C499.384,314.156 495.942,313.598 493.071,312.482C490.2,311.369 487.859,309.822 486.049,307.844C484.237,305.866 482.898,303.51 482.036,300.778C481.171,298.048 480.739,295.065 480.739,291.832C480.739,288.654 481.185,285.674 482.077,282.885C482.968,280.099 484.292,277.675 486.049,275.612C487.804,273.55 489.978,271.919 492.57,270.72C495.162,269.523 498.186,268.922 501.642,268.922C504.652,268.922 507.327,269.452 509.668,270.51C512.009,271.571 514.002,273.02 515.647,274.857C517.29,276.697 518.532,278.886 519.367,281.421C520.204,283.96 520.621,286.676 520.621,289.574C520.621,290.634 520.58,291.68 520.497,292.71C520.413,293.742 520.315,294.564 520.204,295.175L492.444,295.175Z" style="fill:rgb(65,64,66);fill-rule:nonzero;"/>
    </g>
    <g transform="matrix(0.280277,0,0,0.280277,-47.5159,-70.3621)">
        <path d="M555.069,278.872C553.955,278.595 553.048,278.413 552.352,278.328C551.655,278.245 550.777,278.202 549.719,278.202C547.88,278.202 546.276,278.58 544.91,279.332C543.545,280.085 542.417,281.087 541.524,282.341C540.631,283.595 539.977,285.073 539.56,286.773C539.142,288.473 538.933,290.242 538.933,292.081C538.933,294.369 539.211,296.305 539.769,297.894C540.325,299.482 541.091,300.75 542.068,301.698C543.044,302.646 544.201,303.327 545.538,303.747C546.876,304.164 548.324,304.372 549.886,304.372C550.834,304.372 551.697,304.331 552.478,304.247C553.257,304.164 554.122,303.983 555.069,303.704L555.069,278.872ZM555.069,252.032C556.073,251.867 557.062,251.754 558.038,251.698C559.011,251.643 559.974,251.615 560.922,251.615C561.869,251.615 562.845,251.643 563.848,251.698C564.852,251.754 565.855,251.867 566.859,252.032L566.859,311.73C564.237,312.512 561.577,313.109 558.874,313.529C556.17,313.947 552.895,314.156 549.049,314.156C546.095,314.156 543.265,313.752 540.563,312.943C537.859,312.135 535.476,310.853 533.415,309.098C531.351,307.342 529.72,305.072 528.523,302.283C527.325,299.497 526.725,296.095 526.725,292.081C526.725,288.905 527.24,285.91 528.272,283.094C529.303,280.281 530.781,277.84 532.704,275.777C534.628,273.717 536.953,272.086 539.684,270.887C542.417,269.688 545.455,269.09 548.799,269.09C549.801,269.09 550.847,269.13 551.934,269.215C553.021,269.299 554.066,269.48 555.069,269.759L555.069,252.032Z" style="fill:rgb(65,64,66);fill-rule:nonzero;"/>
    </g>
    <g transform="matrix(0.280277,0,0,0.280277,-47.5159,-70.3621)">
        <path d="M419.228,343.291L412.499,325.059L405.666,343.291L419.228,343.291ZM405.013,344.949L400.141,358.158L398.082,358.158L411.292,323.5L413.803,323.5L426.862,358.158L424.803,358.158L419.831,344.949L405.013,344.949Z" style="fill:rgb(65,64,66);fill-rule:nonzero;"/>
    </g>
    <g transform="matrix(0.280277,0,0,0.280277,-47.5159,-70.3621)">
        <path d="M450.27,345.902L450.27,343.341C450.27,335.154 445.449,332.591 441.381,332.591C435.453,332.591 431.234,337.464 431.234,344.898C431.234,351.58 434.598,357.254 440.929,357.254C445.95,357.254 450.27,354.341 450.27,345.902M452.179,358.158L450.27,358.158L450.27,352.533L448.715,355.547C446.554,357.957 444.092,358.861 440.727,358.861C433.595,358.861 429.124,353.134 429.124,345.15C429.124,335.707 434.901,330.986 441.381,330.986C444.443,330.986 446.804,331.89 448.763,334L450.27,337.062L450.27,321.24L452.179,321.24L452.179,358.158Z" style="fill:rgb(65,64,66);fill-rule:nonzero;"/>
    </g>
    <g transform="matrix(0.280277,0,0,0.280277,-47.5159,-70.3621)">
        <path d="M478.501,345.902L478.501,343.341C478.501,335.154 473.68,332.591 469.611,332.591C463.684,332.591 459.465,337.464 459.465,344.898C459.465,351.58 462.83,357.254 469.159,357.254C474.181,357.254 478.501,354.341 478.501,345.902M480.409,358.158L478.501,358.158L478.501,352.533L476.945,355.547C474.785,357.957 472.323,358.861 468.958,358.861C461.825,358.861 457.355,353.134 457.355,345.15C457.355,335.707 463.132,330.986 469.611,330.986C472.674,330.986 475.035,331.89 476.994,334L478.501,337.062L478.501,321.24L480.409,321.24L480.409,358.158Z" style="fill:rgb(65,64,66);fill-rule:nonzero;"/>
    </g>
    <g transform="matrix(0.280277,0,0,0.280277,-47.5159,-70.3621)">
        <path d="M497.739,331.137L497.739,332.694C492.968,332.342 489.602,335.455 489.602,343.492L489.602,358.158L487.693,358.158L487.693,331.69L489.602,331.69L489.602,337.063L491.01,333.848C492.315,332.041 494.223,330.987 496.384,330.987C496.885,330.987 497.338,331.037 497.739,331.137" style="fill:rgb(65,64,66);fill-rule:nonzero;"/>
    </g>
    <g transform="matrix(0.280277,0,0,0.280277,-47.5159,-70.3621)">
        <path d="M501.156,343.793L520.342,343.793C520.04,335.605 515.521,332.592 511.05,332.592C506.429,332.592 501.456,336.209 501.156,343.793M522.251,345.451L501.156,345.451C501.456,354.039 506.177,357.254 510.8,357.254C514.817,357.254 518.635,354.943 519.94,349.92L521.899,349.92C520.443,355.898 515.821,358.861 510.698,358.861C504.37,358.861 499.146,354.141 499.146,344.848C499.146,336.461 504.42,330.986 511.15,330.986C518.635,330.986 522.302,337.314 522.302,344.195C522.302,344.447 522.302,344.797 522.251,345.451" style="fill:rgb(65,64,66);fill-rule:nonzero;"/>
    </g>
    <g transform="matrix(0.280277,0,0,0.280277,-47.5159,-70.3621)">
        <path d="M544.304,338.973L542.345,338.973C541.341,334.702 539.031,332.592 535.011,332.592C531.496,332.592 528.632,334.653 528.632,338.119C528.632,341.584 531.395,342.94 535.463,343.895C541.541,345.301 544.555,347.311 544.555,351.78C544.555,356.2 540.688,358.862 535.414,358.862C530.34,358.862 526.121,356.35 525.469,350.325L527.428,350.325C528.231,355.448 531.496,357.254 535.565,357.254C539.382,357.254 542.596,355.397 542.596,351.879C542.596,348.516 540.537,347.008 534.66,345.602C530.34,344.547 526.673,342.789 526.673,338.27C526.673,334 530.14,330.987 535.113,330.987C540.739,330.987 543.6,334.452 544.304,338.973" style="fill:rgb(65,64,66);fill-rule:nonzero;"/>
    </g>
    <g transform="matrix(0.280277,0,0,0.280277,-47.5159,-70.3621)">
        <path d="M566.454,338.973L564.495,338.973C563.491,334.702 561.181,332.592 557.162,332.592C553.646,332.592 550.783,334.653 550.783,338.119C550.783,341.584 553.546,342.94 557.614,343.895C563.692,345.301 566.706,347.311 566.706,351.78C566.706,356.2 562.838,358.862 557.565,358.862C552.491,358.862 548.272,356.35 547.619,350.325L549.578,350.325C550.382,355.448 553.646,357.254 557.715,357.254C561.532,357.254 564.747,355.397 564.747,351.879C564.747,348.516 562.688,347.008 556.81,345.602C552.491,344.547 548.824,342.789 548.824,338.27C548.824,334 552.29,330.987 557.263,330.987C562.889,330.987 565.751,334.452 566.454,338.973" style="fill:rgb(65,64,66);fill-rule:nonzero;"/>
    </g>
    <g transform="matrix(0.280277,0,0,0.280277,-47.5159,-70.3621)">
        <path d="M632.75,295.129L579.04,255.581C578.047,257.037 577.462,258.797 577.462,260.695L577.462,305.03C577.462,310.049 581.528,314.117 586.551,314.117L678.561,314.117C683.579,314.117 687.647,310.049 687.647,305.03L687.647,260.695C687.647,258.808 687.071,257.056 686.087,255.604L632.75,295.129Z" style="fill:rgb(190,32,37);fill-rule:nonzero;"/>
    </g>
    <g transform="matrix(0.280277,0,0,0.280277,-47.5159,-70.3621)">
        <path d="M632.741,289.496L682.586,252.558C681.372,251.954 680.007,251.606 678.56,251.606L586.551,251.606C585.115,251.606 583.761,251.95 582.553,252.543L632.741,289.496Z" style="fill:rgb(190,32,37);fill-rule:nonzero;"/>
    </g>
</svg>
